<?xml version="1.0" standalone="no"?>
<!DOCTYPE svg PUBLIC "-//W3C//DTD SVG 20010904//EN"
 "http://www.w3.org/TR/2001/REC-SVG-20010904/DTD/svg10.dtd">
<svg version="1.0" xmlns="http://www.w3.org/2000/svg"
 width="900.000000pt" height="620.000000pt" viewBox="0 0 900.000000 620.000000"
 preserveAspectRatio="xMidYMid meet">

<g transform="translate(0.000000,620.000000) scale(0.100000,-0.100000)"
fill="#000000" stroke="none">
<path d="M4105 6181 c-102 -29 -204 -89 -278 -165 -64 -64 -75 -71 -165 -101
-53 -18 -160 -45 -237 -59 -248 -47 -354 -90 -498 -205 -186 -148 -308 -381
-362 -689 -63 -365 -20 -701 117 -913 46 -73 242 -276 338 -352 36 -28 66 -52
68 -52 1 -1 -16 -46 -38 -100 -87 -214 -153 -447 -186 -660 -23 -147 -23 -451
-1 -593 l17 -104 -34 -41 c-56 -69 -75 -114 -100 -238 -5 -25 -9 -26 -89 -32
-245 -19 -430 -124 -487 -274 -32 -84 -25 -202 20 -341 38 -119 36 -142 -19
-179 -60 -41 -126 -54 -258 -54 -120 1 -122 1 -142 -25 -28 -36 -27 -79 3
-109 31 -31 215 -120 291 -141 131 -35 333 -28 461 17 l57 19 43 -40 c24 -22
61 -48 81 -57 21 -10 58 -35 83 -57 87 -75 195 -105 310 -86 46 8 80 8 106 2
22 -6 51 -13 65 -16 21 -4 28 -14 33 -39 11 -58 81 -189 141 -264 71 -90 163
-154 265 -185 61 -19 97 -23 190 -22 103 0 125 4 210 33 130 44 223 49 405 23
192 -29 337 -37 410 -23 85 16 179 64 204 105 26 41 26 52 2 99 -10 20 -18 37
-16 37 7 0 827 83 1040 105 514 54 511 53 522 106 3 16 17 38 30 49 26 20 87
173 300 755 166 453 233 648 233 676 0 19 -16 48 -48 86 -76 91 -63 86 -225
79 -251 -12 -689 -35 -788 -42 l-96 -6 -27 55 c-30 61 -100 145 -138 166 -25
13 -25 13 -32 219 -5 180 -20 339 -42 463 -6 35 -4 37 57 81 79 56 192 173
246 253 155 230 203 476 183 940 -13 297 -54 514 -130 681 -16 35 -27 71 -24
79 12 31 -18 232 -47 320 -42 124 -81 188 -164 270 -114 113 -258 186 -373
191 -57 2 -66 6 -110 43 -92 80 -234 140 -467 198 -98 25 -128 28 -280 28 -98
0 -185 -5 -207 -12 -36 -11 -37 -10 -87 37 -80 78 -201 100 -336 61z m218
-122 c38 -19 76 -61 87 -94 l10 -32 63 14 c175 37 359 26 576 -33 221 -60 323
-108 395 -183 28 -29 33 -30 83 -25 63 8 113 -8 217 -70 181 -108 274 -284
281 -536 l3 -115 -7 105 c-7 87 -14 116 -40 172 -61 129 -177 252 -275 293
-43 18 -70 20 -60 3 4 -7 3 -8 -5 -4 -6 4 -9 11 -6 16 6 10 -87 6 -120 -5 -17
-5 -30 4 -63 44 -175 207 -540 301 -917 236 -44 -8 -90 -17 -101 -20 -17 -5
-23 -1 -28 19 -10 41 -73 103 -122 122 -34 13 -62 16 -118 11 -120 -9 -206
-64 -286 -184 -53 -79 -77 -142 -97 -248 l-12 -70 5 74 c7 92 45 227 87 305
45 84 152 164 272 202 50 16 149 18 178 3z m-536 -246 c-8 -15 -23 -60 -33
-100 -10 -40 -21 -68 -24 -63 -3 5 -31 1 -65 -9 -33 -11 -96 -24 -140 -30
-125 -18 -185 -31 -255 -53 -178 -56 -402 -218 -490 -353 -36 -56 -32 -33 11
63 87 194 245 346 430 416 36 13 131 38 214 56 82 17 196 49 254 70 58 20 107
36 109 35 2 -2 -3 -16 -11 -32z m483 34 c0 -2 -17 -19 -37 -38 l-38 -34 34 38
c33 34 41 42 41 34z m433 -154 c-7 -2 -21 -2 -30 0 -10 3 -4 5 12 5 17 0 24
-2 18 -5z m-560 -18 c-3 -9 -8 -14 -10 -11 -3 3 -2 9 2 15 9 16 15 13 8 -4z
m-20 -40 c-3 -9 -8 -14 -10 -11 -3 3 -2 9 2 15 9 16 15 13 8 -4z m837 -20 c13
-14 21 -25 18 -25 -2 0 -15 11 -28 25 -13 14 -21 25 -18 25 2 0 15 -11 28 -25z
m-89 -12 c24 -11 56 -33 72 -48 29 -30 29 -49 0 -22 -29 25 -139 48 -234 48
-128 0 -300 -43 -354 -89 l-20 -17 20 24 c27 33 165 96 250 115 90 20 207 15
266 -11z m-432 14 c-2 -2 -22 -15 -44 -31 l-40 -27 35 30 c19 17 39 31 44 31
5 0 7 -1 5 -3z m-712 -54 c-3 -10 -5 -2 -5 17 0 19 2 27 5 18 2 -10 2 -26 0
-35z m623 -17 c0 -2 -8 -10 -17 -17 -16 -13 -17 -12 -4 4 13 16 21 21 21 13z
m1345 -26 c10 -11 16 -20 13 -20 -3 0 -13 9 -23 20 -10 11 -16 20 -13 20 3 0
13 -9 23 -20z m40 -56 c9 -15 12 -23 6 -20 -11 7 -35 46 -28 46 3 0 12 -12 22
-26z m-75 -4 c6 -11 8 -20 6 -20 -3 0 -10 9 -16 20 -6 11 -8 20 -6 20 3 0 10
-9 16 -20z m-1883 -142 c-2 -18 -4 -4 -4 32 0 36 2 50 4 33 2 -18 2 -48 0 -65z
m1054 55 c13 -16 12 -17 -3 -4 -10 7 -18 15 -18 17 0 8 8 3 21 -13z m-60 -30
c42 -25 62 -75 57 -140 -6 -70 -21 -86 -42 -44 -32 62 -119 79 -191 38 -29
-17 -47 -38 -68 -81 -16 -32 -30 -69 -31 -82 -3 -62 -48 18 -48 86 0 91 61
178 156 221 52 23 129 24 167 2z m-1044 -65 c-2 -13 -4 -5 -4 17 -1 22 1 32 4
23 2 -10 2 -28 0 -40z m1170 -20 c-3 -8 -6 -5 -6 6 -1 11 2 17 5 13 3 -3 4
-12 1 -19z m806 -26 c68 -32 126 -83 154 -135 19 -38 32 -242 16 -258 -7 -7
-12 14 -15 63 -12 180 -159 340 -314 342 -54 1 -70 10 -36 20 41 12 134 -3
195 -32z m128 -9 c13 -16 12 -17 -3 -4 -10 7 -18 15 -18 17 0 8 8 3 21 -13z
m-939 -65 c-6 -6 -7 0 -4 19 5 21 7 23 10 9 2 -10 0 -22 -6 -28z m765 -24 c-3
-3 -12 -4 -19 -1 -8 3 -5 6 6 6 11 1 17 -2 13 -5z m88 -54 c10 -11 16 -20 13
-20 -3 0 -13 9 -23 20 -10 11 -16 20 -13 20 3 0 13 -9 23 -20z m-41 -33 c39
-30 86 -123 86 -171 0 -39 -15 -48 -25 -16 -10 30 -59 60 -99 60 -46 0 -101
-48 -121 -105 l-13 -40 -12 29 c-40 105 -5 240 70 269 27 11 81 -2 114 -26z
m-367 -4 c14 -21 19 -58 23 -190 l6 -164 77 -152 c42 -84 86 -179 97 -211 19
-57 26 -116 14 -116 -4 0 -23 14 -42 32 -20 17 -88 56 -150 86 -99 47 -122 55
-175 55 -77 1 -140 -26 -184 -76 -67 -76 -71 -214 -12 -372 16 -44 38 -76 81
-119 l59 -58 -25 -42 c-56 -91 -55 -90 -206 -96 -74 -2 -207 -5 -295 -5 -192
0 -242 13 -317 83 -71 66 -88 122 -95 305 -3 81 -9 147 -13 147 -11 0 -24
-259 -15 -309 12 -73 -35 -42 -110 73 -29 44 -71 98 -93 120 l-40 38 29 43
c32 48 89 164 89 182 0 7 25 20 55 29 76 24 121 13 155 -39 20 -31 26 -36 35
-24 8 12 13 12 22 2 7 -7 29 -16 51 -20 66 -11 111 15 208 121 93 102 112 114
266 174 55 22 122 53 148 70 70 45 137 122 171 195 16 36 43 95 60 132 35 78
74 133 94 133 8 0 22 -12 32 -27z m-527 -27 c0 -2 -8 -10 -17 -17 -16 -13 -17
-12 -4 4 13 16 21 21 21 13z m-40 -30 c0 -2 -8 -10 -17 -17 -16 -13 -17 -12
-4 4 13 16 21 21 21 13z m-265 -54 c-3 -3 -11 0 -18 7 -9 10 -8 11 6 5 10 -3
15 -9 12 -12z m1522 -24 c-3 -7 -5 -2 -5 12 0 14 2 19 5 13 2 -7 2 -19 0 -25z
m-590 -15 c-3 -10 -5 -4 -5 12 0 17 2 24 5 18 2 -7 2 -21 0 -30z m723 -193
c10 -52 24 -147 29 -210 12 -130 13 -517 1 -600 l-7 -55 -2 80 c-3 199 -67
501 -147 701 -23 58 -24 65 -11 91 14 26 47 132 62 198 7 28 9 26 31 -40 14
-38 33 -113 44 -165z m-1553 214 c-3 -3 -12 -4 -19 -1 -8 3 -5 6 6 6 11 1 17
-2 13 -5z m1410 -56 c-3 -8 -6 -5 -6 6 -1 11 2 17 5 13 3 -3 4 -12 1 -19z
m-190 -30 c-3 -8 -6 -5 -6 6 -1 11 2 17 5 13 3 -3 4 -12 1 -19z m-326 -105
c13 -16 12 -17 -3 -4 -10 7 -18 15 -18 17 0 8 8 3 21 -13z m30 -40 c13 -16 12
-17 -3 -4 -10 7 -18 15 -18 17 0 8 8 3 21 -13z m249 14 c0 -2 -10 -12 -22 -23
l-23 -19 19 23 c18 21 26 27 26 19z m173 -42 c-3 -9 -8 -14 -10 -11 -3 3 -2 9
2 15 9 16 15 13 8 -4z m-22 -48 c-10 -9 -11 -8 -5 6 3 10 9 15 12 12 3 -3 0
-11 -7 -18z m-231 -147 c-6 -11 -13 -20 -16 -20 -2 0 0 9 6 20 6 11 13 20 16
20 2 0 0 -9 -6 -20z m-50 -80 c-6 -11 -13 -20 -16 -20 -2 0 0 9 6 20 6 11 13
20 16 20 2 0 0 -9 -6 -20z m54 -35 c-9 -14 -18 -25 -21 -25 -5 0 5 18 20 38
17 22 18 13 1 -13z m-86 -20 c-6 -14 -13 -23 -15 -21 -5 5 15 46 22 46 3 0 -1
-11 -7 -25z m32 -65 c-6 -11 -13 -20 -16 -20 -2 0 0 9 6 20 6 11 13 20 16 20
2 0 0 -9 -6 -20z m-30 -50 c-6 -11 -13 -20 -16 -20 -2 0 0 9 6 20 6 11 13 20
16 20 2 0 0 -9 -6 -20z m-3 -172 c-3 -8 -6 -5 -6 6 -1 11 2 17 5 13 3 -3 4
-12 1 -19z m-16 -51 c-10 -9 -11 -8 -5 6 3 10 9 15 12 12 3 -3 0 -11 -7 -18z
m-71 -158 c-24 -175 -80 -309 -162 -391 -72 -73 -119 -63 -190 40 -18 25 -47
63 -65 83 l-34 37 51 67 c27 36 50 70 50 76 0 5 15 9 33 9 68 0 263 92 307
146 20 23 21 13 10 -67z m-1459 -25 c28 -31 70 -54 97 -54 11 0 32 -19 51 -45
56 -78 157 -133 276 -150 48 -7 52 -10 90 -68 46 -71 118 -129 190 -154 52
-19 228 -25 291 -11 l31 7 18 -64 c35 -129 115 -205 241 -229 l69 -13 -3 -52
c-3 -61 20 -151 51 -196 11 -16 68 -77 127 -135 79 -77 115 -121 135 -163 l28
-59 -12 -161 c-11 -155 -22 -231 -35 -245 -4 -3 -102 -11 -219 -18 -116 -7
-260 -15 -318 -19 l-107 -6 28 83 c29 85 66 244 96 403 19 104 32 435 16 435
-11 0 -22 -47 -22 -97 0 -48 -27 -227 -51 -343 -56 -269 -68 -321 -89 -397
l-22 -82 -41 -6 c-23 -3 -59 -6 -81 -7 l-38 -3 -38 -100 c-24 -63 -43 -99 -51
-97 -7 2 -47 32 -88 66 -231 193 -406 446 -562 811 -90 210 -104 203 -32 -15
118 -356 340 -671 602 -855 l79 -55 -78 -208 c-87 -235 -202 -535 -206 -541
-2 -1 -39 16 -84 40 -348 186 -600 537 -775 1081 -69 216 -58 323 47 462 151
197 164 225 155 350 -3 45 -15 122 -27 171 -19 76 -21 109 -17 215 4 106 9
138 35 212 42 121 94 215 153 282 28 31 54 56 58 56 4 0 18 -12 32 -26z m1496
-36 c-3 -7 -5 -2 -5 12 0 14 2 19 5 13 2 -7 2 -19 0 -25z m-10 -70 c-3 -8 -6
-5 -6 6 -1 11 2 17 5 13 3 -3 4 -12 1 -19z m-502 -158 c41 -38 115 -139 107
-144 -27 -17 -195 -38 -259 -32 -112 9 -175 38 -252 115 l-66 66 135 11 c74 7
174 11 222 10 77 -1 89 -4 113 -26z m1048 5 c-3 -9 -8 -14 -10 -11 -3 3 -2 9
2 15 9 16 15 13 8 -4z m-20 -40 c-3 -9 -8 -14 -10 -11 -3 3 -2 9 2 15 9 16 15
13 8 -4z m-69 -110 c-9 -14 -18 -25 -21 -25 -5 0 5 18 20 38 17 22 18 13 1
-13z m-594 1 c0 -2 -8 -10 -17 -17 -16 -13 -17 -12 -4 4 13 16 21 21 21 13z
m450 -1206 c48 -47 105 -144 94 -162 -9 -13 -44 -9 -44 6 0 17 -80 92 -110
101 -18 6 -21 12 -16 37 3 17 6 39 6 49 0 29 15 23 70 -31z m-2435 -54 c44
-14 91 -35 105 -46 l25 -20 -45 20 c-69 30 -218 28 -317 -5 -41 -14 -94 -39
-117 -54 -97 -67 -168 -175 -183 -276 -6 -46 -8 -48 -14 -20 -4 17 -7 65 -8
107 -1 87 23 167 66 219 30 35 108 77 178 96 76 19 214 10 310 -21z m2342
-118 c-3 -8 -6 -5 -6 6 -1 11 2 17 5 13 3 -3 4 -12 1 -19z m-2102 -208 c100
-253 243 -471 413 -631 l80 -75 -82 -13 c-44 -7 -95 -15 -112 -18 -29 -4 -32
-2 -48 41 -10 26 -55 102 -100 169 -45 68 -87 142 -94 165 -15 50 -37 58 -27
10 10 -48 48 -128 106 -224 57 -94 89 -177 89 -227 0 -18 -10 -62 -22 -97 -53
-160 -221 -244 -483 -245 -226 0 -296 47 -296 200 0 72 16 112 58 144 20 14
23 20 12 21 -27 0 -70 -41 -90 -84 -34 -74 -20 -195 27 -247 15 -16 13 -18
-19 -24 -20 -4 -60 -2 -89 4 -110 24 -168 92 -168 196 0 72 20 119 72 167 42
39 38 49 -10 24 -83 -43 -136 -162 -111 -248 5 -18 7 -34 4 -36 -11 -11 -95
71 -114 111 -25 51 -28 132 -7 182 22 52 92 122 150 149 179 83 483 52 759
-78 37 -18 66 -28 64 -22 -13 40 -251 146 -393 175 -85 17 -111 30 -177 89
-49 45 -117 147 -117 177 0 11 13 41 29 66 54 86 151 108 300 69 131 -35 231
-20 288 41 37 40 65 116 58 152 -12 55 10 18 50 -83z m-1196 -465 c15 -7 45
-37 67 -65 23 -30 52 -55 71 -62 41 -15 42 -36 8 -110 -17 -35 -25 -71 -25
-106 l0 -53 -63 -30 c-84 -39 -181 -59 -290 -59 -85 0 -222 23 -232 39 -2 5
19 11 48 14 118 12 231 81 268 161 22 49 24 106 5 170 -18 59 -15 67 32 94 44
25 73 27 111 7z m1525 -951 l325 -165 333 30 c183 17 345 31 360 31 31 0 78
-44 78 -73 0 -28 -53 -73 -108 -92 -87 -30 -189 -30 -427 0 -256 32 -310 30
-445 -15 -111 -37 -267 -50 -361 -31 -170 35 -311 163 -405 367 -19 40 -34 75
-34 78 0 3 48 6 108 7 59 0 130 7 157 14 28 7 60 13 72 14 12 0 168 -74 347
-165z"/>
</g>
</svg>
